<svg width="215" height="88" viewBox="0 0 215 88" fill="none" xmlns="http://www.w3.org/2000/svg"><path d="M42.252 50.1724L48.5046 56.3574V66.6797H36.0371V56.3574L42.252 50.1724Z" fill="#080808"></path><path d="M33.4506 41.4308L27.2231 35.2207H16.8301V47.6033H27.2231L33.4506 41.4308Z" fill="#E6E6E6"></path><path d="M48.5185 47.5952L48.5059 56.3577L55.8503 63.6563L64.6686 54.9021L57.32 47.6036L48.5185 47.5952Z" fill="#E6E6E6"></path><path d="M36.021 47.5952L36.0378 56.3577L28.6892 63.6563L19.875 54.9021L27.2236 47.6036L36.021 47.5952Z" fill="#E6E6E6"></path><path d="M36.0462 35.1957L27.2236 35.2124L19.875 27.9138L28.6892 19.1597L36.0378 26.4582L36.0462 35.1957Z" fill="#E6E6E6"></path><path d="M51.0918 41.4224L57.3192 35.2124H67.7123V47.595H57.3192L51.0918 41.4224Z" fill="#E6E6E6"></path><path d="M48.4922 35.1957L57.3189 35.2124L64.6676 27.9138L55.8534 19.1597L48.5048 26.4582L48.4922 35.1957Z" fill="#E6E6E6"></path><path d="M42.252 32.6435L48.5046 26.4585V16.1362H36.0371V26.4585L42.252 32.6435Z" fill="#E6E6E6"></path><path d="M87.7638 31.0879C89.6702 31.0879 91.1483 31.5508 92.1981 32.4767C93.248 33.4026 93.7715 34.6885 93.7687 36.3345C93.7687 38.0028 93.2452 39.3123 92.1981 40.2632C91.1511 41.2141 89.673 41.684 87.7638 41.6729H83.6443V47.591H80.1758V31.0879H87.7638ZM87.2725 38.645C88.3419 38.645 89.0991 38.449 89.5442 38.057C89.9707 37.5998 90.2076 36.9995 90.2076 36.3762C90.2076 35.753 89.9707 35.1527 89.5442 34.6955C89.0991 34.309 88.3419 34.1158 87.2725 34.1158H83.6443V38.645H87.2725Z" fill="#080808"></path><path d="M100.152 35.4087C101.031 35.399 101.905 35.5547 102.726 35.8674C103.459 36.1423 104.124 36.5688 104.679 37.1186C105.226 37.6838 105.647 38.3575 105.913 39.0955C106.484 40.7427 106.484 42.5323 105.913 44.1795C105.647 44.9175 105.226 45.5912 104.679 46.1563C104.126 46.7078 103.46 47.1345 102.726 47.4075C101.904 47.7174 101.031 47.8703 100.152 47.858C99.2783 47.8708 98.4103 47.7179 97.5945 47.4075C96.8645 47.132 96.2017 46.7056 95.6503 46.1563C95.0973 45.591 94.6683 44.9178 94.3905 44.1795C93.7969 42.5361 93.7969 40.7389 94.3905 39.0955C94.6683 38.3571 95.0973 37.684 95.6503 37.1186C96.2029 36.5708 96.8653 36.1445 97.5945 35.8674C98.4098 35.5542 99.2778 35.3985 100.152 35.4087V35.4087ZM100.152 45.1888C100.612 45.2011 101.067 45.1009 101.479 44.8968C101.84 44.7171 102.151 44.4522 102.386 44.1253C102.629 43.7849 102.807 43.4033 102.911 42.9992C103.03 42.5558 103.089 42.0985 103.087 41.6396C103.09 41.1847 103.031 40.7315 102.911 40.2925C102.805 39.8916 102.627 39.513 102.386 39.1747C102.15 38.8491 101.839 38.5844 101.479 38.4032C101.066 38.2025 100.611 38.1038 100.152 38.1154C99.6966 38.1028 99.2452 38.2016 98.8375 38.4032C98.4802 38.5888 98.1701 38.8526 97.9305 39.1747C97.6833 39.5106 97.5024 39.8898 97.3972 40.2925C97.2773 40.7315 97.218 41.1847 97.2208 41.6396C97.2185 42.0985 97.2778 42.5558 97.3972 42.9992C97.5006 43.405 97.6817 43.7873 97.9305 44.1253C98.1689 44.4485 98.4793 44.7125 98.8375 44.8968C99.2441 45.1018 99.696 45.2022 100.152 45.1888V45.1888Z" fill="#080808"></path><path d="M115.012 39.2036C115.016 39.0224 114.967 38.8438 114.87 38.6902C114.773 38.5366 114.632 38.4149 114.466 38.3403C113.997 38.1234 113.483 38.0232 112.966 38.0484C111.662 38.0484 110.917 38.4807 110.733 39.3454H107.751C107.798 38.7346 107.982 38.1419 108.289 37.6105C108.579 37.1208 108.977 36.7018 109.452 36.3843C109.966 36.0488 110.534 35.8033 111.131 35.6586C111.808 35.4917 112.504 35.4104 113.202 35.4167C113.92 35.4072 114.636 35.4956 115.331 35.6795C115.897 35.8294 116.433 36.0764 116.914 36.4093C117.324 36.7058 117.661 37.0908 117.901 37.5354C118.129 37.9495 118.249 38.4143 118.249 38.8867C118.286 39.4378 118.152 39.9869 117.863 40.459C117.654 40.7746 117.364 41.0294 117.023 41.1972V41.6601C117.468 41.8069 117.858 42.0847 118.14 42.4567C118.482 42.9565 118.646 43.5554 118.606 44.1583C118.609 44.6834 118.476 45.2003 118.22 45.6597C117.956 46.1357 117.587 46.5462 117.141 46.8609C116.625 47.2218 116.049 47.4887 115.44 47.6491C114.711 47.8404 113.96 47.933 113.206 47.9244C111.33 47.9244 109.919 47.5657 108.973 46.8484C108.507 46.5003 108.121 46.0577 107.84 45.5501C107.559 45.0425 107.39 44.4813 107.344 43.9039H110.346C110.406 44.1519 110.526 44.3816 110.696 44.5728C110.866 44.764 111.08 44.911 111.32 45.0008C111.871 45.2017 112.455 45.2993 113.042 45.2886C113.617 45.3135 114.191 45.2109 114.722 44.9883C114.915 44.9103 115.079 44.7752 115.191 44.6013C115.304 44.4274 115.36 44.2232 115.352 44.0165C115.365 43.8397 115.33 43.6627 115.25 43.5041C115.17 43.3456 115.048 43.2113 114.898 43.1157C114.438 42.8982 113.928 42.8033 113.42 42.8404H111.467V40.3464H113.302C114.44 40.3464 115.012 39.9669 115.012 39.2036Z" fill="#080808"></path><path d="M131.813 42.0605H123.251C123.239 42.9069 123.517 43.7322 124.041 44.4002C124.307 44.6844 124.633 44.9067 124.996 45.0509C125.359 45.1951 125.75 45.2577 126.14 45.2343C126.648 45.2608 127.155 45.1514 127.606 44.9173C127.959 44.7105 128.23 44.3896 128.374 44.0081H131.679C131.465 45.1416 130.841 46.1581 129.924 46.865C129 47.5796 127.723 47.9369 126.094 47.9369C125.223 47.9505 124.358 47.7975 123.545 47.4864C122.823 47.2099 122.169 46.7833 121.626 46.2352C121.088 45.6674 120.676 44.994 120.417 44.2584C120.128 43.4254 119.986 42.5493 119.997 41.6684C119.987 40.7958 120.129 39.9281 120.417 39.1035C120.671 38.3591 121.09 37.6808 121.643 37.1183C122.18 36.5733 122.827 36.1469 123.541 35.8671C124.346 35.5693 125.201 35.4278 126.06 35.45C126.886 35.4344 127.707 35.576 128.479 35.8671C129.153 36.124 129.764 36.5211 130.271 37.0318C130.778 37.5426 131.169 38.155 131.419 38.8282C131.689 39.549 131.831 40.3111 131.838 41.0804L131.813 42.0605ZM126.018 37.8898C125.371 37.8474 124.731 38.0484 124.225 38.4529C123.798 38.8466 123.499 39.3576 123.364 39.9209H128.496C128.424 39.3616 128.162 38.8436 127.753 38.4529C127.272 38.0434 126.65 37.8368 126.018 37.8773V37.8898Z" fill="#080808"></path><path d="M142.399 47.6284V42.8906H137.419V47.6284H134.16V35.7505H137.419V40.188H142.399V35.7505H145.658V47.6284H142.399Z" fill="#080808"></path><path d="M147.543 35.7505H158.642V38.453H154.732V47.6284H151.473V38.453H147.543V35.7505Z" fill="#080808"></path><path d="M167.633 46.6108H167.167C166.795 47.0257 166.335 47.3534 165.819 47.57C165.184 47.828 164.502 47.9502 163.816 47.9287C163.187 47.9397 162.56 47.8351 161.969 47.6201C161.464 47.4345 161.001 47.1509 160.608 46.786C160.241 46.4336 159.955 46.0069 159.768 45.5348C159.574 45.0462 159.476 44.5252 159.479 44C159.481 43.5205 159.572 43.0455 159.747 42.5987C159.934 42.1269 160.221 41.7003 160.587 41.3475C161.014 40.924 161.526 40.5956 162.09 40.3841C162.814 40.1291 163.578 40.0075 164.345 40.0254H167.537V39.7251C167.537 38.4739 166.827 37.8775 165.416 37.8775C164.905 37.8439 164.396 37.9599 163.951 38.2112C163.794 38.3169 163.662 38.4559 163.566 38.6182C163.469 38.7804 163.41 38.9619 163.392 39.1496H160.159C160.166 38.6097 160.311 38.0804 160.579 37.6106C160.846 37.1489 161.212 36.7504 161.65 36.4428C162.132 36.1061 162.671 35.8563 163.241 35.7046C163.897 35.5289 164.573 35.4433 165.252 35.4502C165.998 35.4421 166.742 35.5276 167.465 35.7046C168.082 35.8511 168.663 36.1176 169.175 36.4887C169.653 36.8479 170.033 37.3213 170.279 37.865C170.568 38.5074 170.711 39.2051 170.699 39.9086V47.6284H167.633V46.6108ZM164.841 45.3596C165.552 45.3905 166.246 45.1417 166.773 44.6673C167.019 44.437 167.213 44.1571 167.342 43.8465C167.471 43.5358 167.531 43.2014 167.52 42.8656V42.1733H164.959C164.386 42.1417 163.816 42.2734 163.317 42.5528C163.122 42.6776 162.965 42.8516 162.861 43.0569C162.757 43.2621 162.71 43.4912 162.725 43.7206C162.71 43.9541 162.753 44.1878 162.85 44.4009C162.947 44.614 163.096 44.8 163.283 44.9426C163.742 45.2489 164.289 45.3969 164.841 45.3638V45.3596Z" fill="#080808"></path><path d="M172.022 44.5547H172.442C172.776 44.5608 173.108 44.5027 173.42 44.3837C173.71 44.2577 173.95 44.0409 174.105 43.7664C174.307 43.4044 174.441 43.0086 174.499 42.5986C174.596 41.989 174.64 41.3723 174.629 40.7552V35.7505H184.846V47.6284H181.588V38.453H177.628V40.872C177.648 41.9427 177.542 43.012 177.313 44.0584C177.15 44.8134 176.824 45.5246 176.36 46.1437C175.94 46.6698 175.377 47.0662 174.739 47.2864C173.997 47.5326 173.219 47.6497 172.438 47.6326H172.018L172.022 44.5547Z" fill="#080808"></path><path d="M190.591 39.2038H193.53C195.078 39.2038 196.264 39.5694 197.087 40.3006C197.505 40.6911 197.833 41.1679 198.046 41.6975C198.259 42.227 198.353 42.7966 198.321 43.366C198.351 43.9414 198.255 44.5163 198.042 45.0522C197.83 45.5881 197.504 46.0726 197.087 46.4731C196.264 47.2378 195.078 47.6187 193.53 47.6159H187.332V35.7505H190.591V39.2038ZM193.06 44.9133C193.832 44.9133 194.362 44.7715 194.639 44.4963C194.783 44.3424 194.895 44.1612 194.967 43.9634C195.039 43.7655 195.07 43.5553 195.059 43.3452C195.073 43.1336 195.042 42.9215 194.97 42.722C194.898 42.5225 194.785 42.34 194.639 42.1857C194.362 41.9105 193.832 41.7687 193.06 41.7687H190.591V44.9133H193.06Z" fill="#080808"></path><path d="M83.6443 53.2378V66.6672H80.1758V50.1641H92.1604V53.2378H83.6443Z" fill="#080808"></path><path d="M99.0511 66.9678C98.3764 66.9971 97.7047 66.8625 97.0942 66.5757C96.6193 66.3311 96.2059 65.9833 95.8849 65.5581H95.4187V71.2885H92.1602V54.7896H95.3222V55.8865H95.7883C96.1343 55.4691 96.5631 55.1269 97.048 54.8813C97.6752 54.58 98.3675 54.4368 99.0637 54.4643C99.8264 54.4533 100.582 54.6144 101.272 54.9356C101.922 55.2436 102.495 55.6892 102.952 56.241C103.426 56.8272 103.782 57.4983 104.002 58.2178C104.248 59.0291 104.369 59.8729 104.359 60.7202C104.368 61.5684 104.243 62.4127 103.989 63.2226C103.766 63.9407 103.41 64.6112 102.94 65.1994C102.488 65.7537 101.913 66.1962 101.26 66.4923C100.569 66.8135 99.8139 66.976 99.0511 66.9678ZM98.2112 57.1919C97.756 57.1792 97.3046 57.2781 96.8969 57.4796C96.5398 57.6661 96.2331 57.935 96.0024 58.2637C95.7611 58.6095 95.5834 58.9949 95.4775 59.4023C95.2424 60.2781 95.2424 61.1998 95.4775 62.0756C95.5826 62.4807 95.7604 62.8636 96.0024 63.2059C96.2353 63.5294 96.5418 63.7937 96.8969 63.9774C97.3046 64.179 97.756 64.2778 98.2112 64.2652C98.6476 64.2736 99.0797 64.1778 99.471 63.9858C99.8248 63.8113 100.131 63.5554 100.365 63.2393C100.609 62.9023 100.787 62.5233 100.89 62.1215C101.126 61.2146 101.126 60.2633 100.89 59.3564C100.786 58.9523 100.608 58.5707 100.365 58.2303C100.136 57.9061 99.8284 57.6438 99.471 57.4671C99.0787 57.2784 98.6471 57.1841 98.2112 57.1919V57.1919Z" fill="#080808"></path><path d="M107.282 71.2885L109.801 65.4496L104.729 54.7979H108.126L111.103 61.1288H111.708L114.454 54.7979H117.733L110.519 71.2968L107.282 71.2885Z" fill="#080808"></path><path d="M127.025 66.6675V57.4921H122.137V66.6675H118.879V54.7896H130.28V66.6675H127.025Z" fill="#080808"></path><path d="M140.896 66.6675V57.4921H136.012V66.6675H132.754V54.7896H144.155V66.6675H140.896Z" fill="#080808"></path></svg>